HIERARCHY
ROOT Hips
{
	OFFSET 0.000000 0.000000 0.000000
	CHANNELS 6 Xposition Yposition Zposition Zrotation Yrotation Xrotation 
	JOINT LHipJoint
	{
		OFFSET 0.000000 0.000000 0.000000
		CHANNELS 3 Zrotation Yrotation Xrotation
		JOINT LeftUpLeg
		{
			OFFSET 1.363060 -1.794630 0.839290
			CHANNELS 3 Zrotation Yrotation Xrotation
			JOINT LeftLeg
			{
				OFFSET 2.448110 -6.726130 0.000000
				CHANNELS 3 Zrotation Yrotation Xrotation
				JOINT LeftFoot
				{
					OFFSET 2.562200 -7.039590 0.000000
					CHANNELS 3 Zrotation Yrotation Xrotation
					JOINT LeftToeBase
					{
						OFFSET 0.157640 -0.433110 2.322550
						CHANNELS 3 Zrotation Yrotation Xrotation
						End Site
						{
							OFFSET 0.000000 0.000000 0.000000
						}
					}
				}
			}
		}
	}
	JOINT RHipJoint
	{
		OFFSET 0.000000 0.000000 0.000000
		CHANNELS 3 Zrotation Yrotation Xrotation
		JOINT RightUpLeg
		{
			OFFSET -1.305520 -1.794630 0.839290
			CHANNELS 3 Zrotation Yrotation Xrotation
			JOINT RightLeg
			{
				OFFSET -2.542530 -6.985550 0.000000
				CHANNELS 3 Zrotation Yrotation Xrotation
				JOINT RightFoot
				{
					OFFSET -2.568260 -7.056230 0.000000
					CHANNELS 3 Zrotation Yrotation Xrotation
					JOINT RightToeBase
					{
						OFFSET -0.164730 -0.452590 2.363150
						CHANNELS 3 Zrotation Yrotation Xrotation
						End Site
						{
							OFFSET 0.000000 0.000000 0.000000
						}
					}
				}
			}
		}
	}
	JOINT LowerBack
	{
		OFFSET 0.000000 0.000000 0.000000
		CHANNELS 3 Zrotation Yrotation Xrotation
		JOINT Spine
		{
			OFFSET 0.028270 2.035590 -0.193380
			CHANNELS 3 Zrotation Yrotation Xrotation
			JOINT Spine1
			{
				OFFSET 0.056720 2.048850 -0.042750
				CHANNELS 3 Zrotation Yrotation Xrotation
				JOINT Neck
				{
					OFFSET 0.000000 0.000000 0.000000
					CHANNELS 3 Zrotation Yrotation Xrotation
					JOINT Neck1
					{
						OFFSET -0.054170 1.746240 0.172020
						CHANNELS 3 Zrotation Yrotation Xrotation
						JOINT Head
						{
							OFFSET 0.104070 1.761360 -0.123970
							CHANNELS 3 Zrotation Yrotation Xrotation
							End Site
							{
								OFFSET 0.000000 0.000000 0.000000
							}
						}
					}
				}
				JOINT LeftShoulder
				{
					OFFSET 0.000000 0.000000 0.000000
					CHANNELS 3 Zrotation Yrotation Xrotation
					JOINT LeftArm
					{
						OFFSET 3.362410 1.200890 -0.311210
						CHANNELS 3 Zrotation Yrotation Xrotation
						JOINT LeftForeArm
						{
							OFFSET 4.983000 -0.000000 -0.000000
							CHANNELS 3 Zrotation Yrotation Xrotation
							JOINT LeftHand
							{
								OFFSET 3.483560 -0.000000 -0.000000
								CHANNELS 3 Zrotation Yrotation Xrotation
								JOINT LeftFingerBase
								{
									OFFSET 0.000000 0.000000 0.000000
									CHANNELS 3 Zrotation Yrotation Xrotation
									JOINT LeftHandIndex1
									{
										OFFSET 0.715260 -0.000000 -0.000000
										CHANNELS 3 Zrotation Yrotation Xrotation
										End Site
										{
											OFFSET 0.000000 0.000000 0.000000
										}
									}
								}
								JOINT LThumb
								{
									OFFSET 0.000000 0.000000 0.000000
									CHANNELS 3 Zrotation Yrotation Xrotation
									End Site
									{
										OFFSET 0.000000 0.000000 0.000000
									}
								}
							}
						}
					}
				}
				JOINT RightShoulder
				{
					OFFSET 0.000000 0.000000 0.000000
					CHANNELS 3 Zrotation Yrotation Xrotation
					JOINT RightArm
					{
						OFFSET -3.136600 1.374050 -0.404650
						CHANNELS 3 Zrotation Yrotation Xrotation
						JOINT RightForeArm
						{
							OFFSET -5.241900 -0.000000 -0.000000
							CHANNELS 3 Zrotation Yrotation Xrotation
							JOINT RightHand
							{
								OFFSET -3.444170 -0.000000 -0.000000
								CHANNELS 3 Zrotation Yrotation Xrotation
								JOINT RightFingerBase
								{
									OFFSET 0.000000 0.000000 0.000000
									CHANNELS 3 Zrotation Yrotation Xrotation
									JOINT RightHandIndex1
									{
										OFFSET -0.622530 -0.000000 -0.000000
										CHANNELS 3 Zrotation Yrotation Xrotation
										End Site
										{
											OFFSET 0.000000 0.000000 0.000000
										}
									}
								}
								JOINT RThumb
								{
									OFFSET 0.000000 0.000000 0.000000
									CHANNELS 3 Zrotation Yrotation Xrotation
									End Site
									{
										OFFSET 0.000000 0.000000 0.000000
									}
								}
							}
						}
					}
				}
			}
		}
	}
}
MOTION
Frames: 6
Frame Time: 0.008333
-1.210127 17.495770 -0.506802 7.651229 83.290532 22.619289 -10.454656 2.165345 1.778459 -11.791736 4.674512 -11.259759 -2.857207 -1.307307 1.728654 0.028788 -0.469226 -2.407757 0.121800 -0.000000 -33.776299 9.755787 -0.706230 1.198080 9.949410 0.712193 -40.510114 0.019332 -3.424580 51.940396 -1.706690 -7.457742 -4.645024 -0.760100 0.000000 -29.647000 -1.482004 -2.482535 -3.378066 -1.186194 -2.558267 -3.663445 -7.931192 -2.702476 0.064672 10.524250 -2.827919 -5.184303 -4.427448 -0.354383 0.606123 0.000000 0.000000 0.000000 -4.593230 2.921928 2.139686 -59.827662 -13.196458 18.795175 -2.874792 -42.058162 -0.008563 4.399139 0.663897 0.022581 -0.130004 0.125351 0.000000 0.000000 0.000000 0.000000 0.000000 0.000000 0.000000 19.650161 -1.420950 1.487171 70.774759 1.201327 -7.521135 3.516030 9.429507 0.006002 -1.789291 4.501761 -0.074706 0.093054 -0.060660 -0.000000 0.000000 0.000000 0.000000 0.000000 0.000000 0.000000 
-0.966112 17.476780 -0.496936 8.191321 83.479264 23.111127 -10.506058 2.247968 1.571906 -11.774577 5.570603 -10.057407 -2.904148 -1.332918 1.214567 -0.041177 -1.097550 -2.472909 0.073600 0.000000 -34.732400 9.599698 -0.640840 1.415272 9.961955 1.147799 -41.313226 0.275832 -3.281571 49.199018 -1.640680 -6.911723 -4.929841 -0.719800 0.000000 -29.236400 -1.331141 -2.640108 -3.358344 -1.141198 -2.725072 -3.645381 -7.919885 -2.862513 0.100606 10.493715 -3.189613 -5.267260 -4.398761 -0.351725 0.587926 0.000000 0.000000 0.000000 -4.442663 2.701758 2.111543 -59.295285 -13.901786 19.051928 -2.796025 -43.828268 -0.008997 4.361122 0.590761 0.019163 -0.133120 0.136023 0.000000 0.000000 0.000000 0.000000 0.000000 0.000000 0.000000 19.523085 -1.886585 1.536502 70.030566 0.104375 -7.943438 3.583270 9.082098 0.005997 -1.869639 4.308427 -0.074625 0.096995 -0.056500 -0.000000 0.000000 0.000000 0.000000 0.000000 0.000000 0.000000 
-0.722277 17.450827 -0.483709 9.465435 83.720823 24.353413 -10.531894 2.325245 1.376882 -11.786713 6.318918 -8.886678 -2.949722 -1.354693 0.802185 -0.101014 -1.662430 -2.561590 0.034300 -0.000000 -35.753300 9.461536 -0.586961 1.639170 9.859199 1.503046 -42.030633 0.547972 -3.114405 46.157040 -1.542556 -6.239621 -4.953245 -0.703400 -0.000000 -29.118700 -1.260958 -2.809099 -3.351258 -1.112527 -2.896992 -3.629746 -7.905660 -3.027860 0.131295 10.479458 -3.565363 -5.348720 -4.369354 -0.349070 0.569898 0.000000 0.000000 0.000000 -4.255666 2.434553 2.087702 -58.725923 -14.602246 19.242881 -2.715091 -45.541677 -0.009502 4.334279 0.535596 0.016641 -0.135959 0.146962 0.000000 0.000000 0.000000 0.000000 0.000000 0.000000 0.000000 19.412337 -2.366658 1.584195 69.287969 -0.997501 -8.387345 3.645160 8.797833 0.006062 -1.937068 4.179951 -0.075042 0.100561 -0.052882 -0.000000 0.000000 0.000000 0.000000 0.000000 0.000000 0.000000 
-0.478809 17.418516 -0.467373 11.460205 84.002227 26.325715 -10.529282 2.395552 1.187203 -11.821139 6.921712 -7.722028 -2.992749 -1.372279 0.473671 -0.151889 -2.164755 -2.664450 0.003400 0.000000 -36.860500 9.347766 -0.541539 1.866526 9.649101 1.777569 -42.651129 0.832995 -2.919481 42.821708 -1.406655 -5.440712 -4.686093 -0.705600 0.000000 -29.348499 -1.260301 -2.986167 -3.343074 -1.098247 -3.071310 -3.610558 -7.888325 -3.194948 0.169947 10.482486 -4.002173 -5.447843 -4.338126 -0.346131 0.546696 0.000000 0.000000 0.000000 -4.038067 2.155317 2.062648 -58.128951 -15.346044 19.380755 -2.633620 -47.165563 -0.010079 4.325797 0.487615 0.014316 -0.138639 0.158088 0.000000 0.000000 0.000000 0.000000 0.000000 0.000000 0.000000 19.324029 -2.908538 1.628069 68.532466 -2.047273 -8.672606 3.700758 8.582131 0.006153 -2.020208 4.082915 -0.076357 0.104018 -0.049425 -0.000000 0.000000 0.000000 0.000000 0.000000 0.000000 0.000000 
-0.235738 17.380414 -0.448233 14.155979 84.310029 29.002997 -10.494091 2.458881 1.000321 -11.872505 7.380775 -6.546611 -3.032236 -1.385383 0.215291 -0.194414 -2.602864 -2.776686 -0.020000 0.000000 -38.061100 9.265457 -0.499741 2.096533 9.343786 1.971202 -43.171897 1.127868 -2.692490 39.210841 -1.231204 -4.525581 -4.131543 -0.714000 -0.000000 -29.911800 -1.313212 -3.167394 -3.328166 -1.095383 -3.245331 -3.588245 -7.867173 -3.361282 0.211407 10.496552 -4.479938 -5.557524 -4.304914 -0.342942 0.520235 0.000000 0.000000 0.000000 -3.792902 1.855554 2.036797 -57.513605 -16.111603 19.450341 -2.550805 -48.698780 -0.010738 4.338574 0.443087 0.012286 -0.141060 0.169362 0.000000 0.000000 0.000000 0.000000 0.000000 0.000000 0.000000 19.247360 -3.491123 1.670126 67.776566 -3.051191 -8.868810 3.751365 8.418599 0.006268 -2.102617 4.008876 -0.077971 0.107309 -0.046171 -0.000000 0.000000 0.000000 0.000000 0.000000 0.000000 0.000000 
0.007307 17.337151 -0.426647 17.498706 84.630940 32.334360 -10.423834 2.517583 0.817202 -11.934819 7.708645 -5.368955 -3.068350 -1.392970 0.030532 -0.229639 -2.984758 -2.902815 -0.037300 0.000000 -39.353499 9.219838 -0.455379 2.333097 8.961884 2.089433 -43.601587 1.429299 -2.427592 35.348688 -1.019028 -3.514575 -3.326588 -0.711800 0.000000 -30.721900 -1.398696 -3.348812 -3.312176 -1.099709 -3.417018 -3.566068 -7.841678 -3.525313 0.248765 10.513105 -4.962829 -5.666254 -4.269945 -0.339621 0.493760 0.000000 0.000000 0.000000 -3.527659 1.529257 2.011445 -56.885552 -16.868703 19.443420 -2.466051 -50.145822 -0.011501 4.376861 0.400062 0.010352 -0.143169 0.180743 0.000000 0.000000 0.000000 0.000000 0.000000 0.000000 0.000000 19.167957 -4.077099 1.711917 67.037282 -4.030375 -9.107941 3.799267 8.279520 0.006420 -2.161160 3.958266 -0.079184 0.110368 -0.043288 -0.000000 0.000000 0.000000 0.000000 0.000000 0.000000 0.000000 
